<?xml version="1.0" encoding="UTF-8"?>
<svg version="1.1" viewBox="0 0 1600 728" width="1280" height="1280" xmlns="http://www.w3.org/2000/svg">
<path transform="translate(0)" d="m0 0h1600v728h-1600v-728z" fill="#FBFCFE"/>
<path transform="translate(142,239)" d="m0 0c8.62 1.08 8.62 1.08 14 5 19.3 11.2 41.7 8.7 63.2 7.23 3.98-0.241 7.94-0.378 11.9-0.418 1.16-0.0142 2.32-0.0284 3.51-0.043 6.95 0.476 14.6 2.81 19.9 7.61 5.16 5.92 7.06 11.3 6.99 19-0.00572 0.755-0.0114 1.51-0.0173 2.29-0.191 5.93-1.22 10-5.48 14.3-0.508 0.536-1.02 1.07-1.54 1.62-9.84 9.33-23.1 12.1-36.1 13.8-1.16 0.261-1.16 0.261-2.34 0.527-0.33 0.66-0.66 1.32-1 2 0.577 0.206 1.16 0.413 1.75 0.625 3.3 2.01 4.52 3.91 6.25 7.38 0.878 6.65-0.265 13.6-0.977 20.2-0.286 3-0.286 3 1.98 5.79 1.92 0.585 1.92 0.585 4.12 0.688l2.41 0.195c3.5 0.166 6.96 0.181 10.5 0.117v-2c1.32-0.33 2.64-0.66 4-1-2.52-1.26-4.44-1.14-7.25-1.25-3.73-0.318-6.41-0.668-9.44-2.94-2.31-2.81-2.31-2.81-2.94-5.75 1.61-7.89 8.38-13.5 14.6-18.1 3.19-1.45 3.19-1.45 6.56-2.69 1.12-0.416 2.23-0.833 3.38-1.26 5.02-1.72 9.71-2.82 15.1-2.05 3.91 2.34 5.97 4.96 8 9 0.919 7.12 0.59 13.7-3 20-0.364 0.666-0.727 1.33-1.1 2.02-5.46 9.5-14.3 14.7-24.7 17.8-8.09 2.07-15.7 2.63-24.1 2.54-1.17 0.0116-2.34 0.0232-3.55 0.0352-6.33-0.0215-11-0.374-16.6-3.41-1.03-0.439-1.03-0.439-2.07-0.887-4.95-2.46-7.17-5.92-8.93-11.1-0.812-4.64-1.2-9.3-1.56-14-0.755-13-0.755-13-6.38-24.5-2.18-1.89-2.18-1.89-6.06-1.5-0.655 14.4 1.53 28.6 4.62 42.7 0.407 2.48 0.444 4.81 0.38 7.32-13.3 0.862-26.5 1.11-39.8 1.12-1.19 0.00375-1.19 0.00375-2.41 0.00757-2.27 0.00586-4.55 0.00441-6.82 2.44e-4 -1.04 0.00298-1.04 0.00298-2.1 0.00601-4.8-0.0236-4.8-0.0236-5.91-1.14-0.467-5.8-0.467-5.8 0-8 2.85-2.89 5.27-3.43 9.25-3.69 0.892-0.0657 1.78-0.131 2.7-0.199 1.01-0.0561 1.01-0.0561 2.05-0.113-0.0116-0.915-0.0232-1.83-0.0352-2.77-0.00902-1.19-0.018-2.38-0.0273-3.6-0.0116-1.18-0.0232-2.37-0.0352-3.59 0.0977-3.04 0.0977-3.04 1.1-5.04 0.331-2.66 0.615-5.31 0.867-7.97 0.165-1.64 0.33-3.28 0.496-4.92 0.257-2.58 0.51-5.16 0.756-7.73 0.24-2.49 0.493-4.98 0.748-7.47 0.0689-0.757 0.138-1.51 0.209-2.29 0.502-4.81 1.59-9.1 3.22-13.7 1.22-3.4 2.05-6.89 2.96-10.4 0.756-2.61 1.71-5.06 2.75-7.58 0.678-2 1.35-4 2-6-0.675-0.182-1.35-0.364-2.05-0.551-0.892-0.251-1.78-0.503-2.7-0.762-0.882-0.244-1.76-0.487-2.67-0.738-2.58-0.949-2.58-0.949-6.58-3.95 1.32-5.28 2.64-10.6 4-16z" fill="#000002"/>
<path transform="translate(708,256)" d="m0 0c1.05 0.598 2.1 1.2 3.19 1.81 6.86 5.33 11.7 12.1 13.6 20.6 0.753 10.7 0.629 22.6-3.75 32.6-0.469 1.41-0.928 2.83-1.38 4.25-1.56 4.74-3.51 9.23-5.62 13.8-0.433 0.949-0.866 1.9-1.31 2.88-2.62 4.86-5.41 9.68-8.69 14.1h-2c-0.227 0.736-0.454 1.47-0.688 2.23-1.59 3.35-3.39 4.83-6.31 7.08-0.887 0.697-1.77 1.39-2.69 2.11-2.31 1.57-2.31 1.57-4.31 1.57-0.495 1.49-0.495 1.49-1 3-1.86 1.13-1.86 1.13-4.19 2.12-1.14 0.499-1.14 0.499-2.29 1.01-9.64 3.32-24.1 3.8-33.6-0.152-3.44-1.8-6.69-3.76-9.88-5.98-0.534-0.344-1.07-0.689-1.62-1.04-4.48-3-7.53-6.21-10.6-10.6-0.429-0.616-0.859-1.23-1.3-1.87-5.03-7.41-7.64-14.7-9.12-23.5-0.209-1.93-0.209-1.93-1.39-2.93-0.128-2.89-0.185-5.74-0.188-8.62-0.0184-1.19-0.0184-1.19-0.0371-2.41-0.0123-5.01 0.6-9.17 2.22-14 0.223-0.699 0.446-1.4 0.676-2.12 2.89-7.97 7.09-15.2 12.3-21.9h2c0.267-0.599 0.534-1.2 0.809-1.82 4.18-7.66 14.3-12.4 22.2-15.2 0.928-0.351 1.86-0.701 2.81-1.06 15-4.42 38.4-3.99 52.2 4.06z" fill="#000002"/>
<path transform="translate(994,250)" d="m0 0c0.676 0.0305 1.35 0.0609 2.05 0.0923 13.4 0.724 24.6 3.87 34.2 14 7.73 8.97 7.47 21.7 6.75 32.9-3.35 21.8-13.9 45.8-31.4 60-9.88 7.11-17.7 10.2-29.8 10.3-0.808 0.0206-1.62 0.0412-2.45 0.0625-13.2 0.0843-22.6-6.23-32-14.9-3.37-3.48-5.87-7.25-8.33-11.4-0.557-0.804-1.11-1.61-1.69-2.44-2.05-4.01-3.18-8.21-4.31-12.6-0.209-0.797-0.418-1.59-0.633-2.41-2.11-9.13-2.56-18.7 0.633-27.6 0.183-0.732 0.366-1.46 0.555-2.22 2.4-9.38 7.07-18.4 14.4-24.8 0.825-0.846 1.65-1.69 2.5-2.56 14.2-13.9 30-17.4 49.5-16.4z" fill="#000002"/>
<path transform="translate(844,243)" d="m0 0c-0.326 0.906-0.652 1.81-0.988 2.75-0.907 2.53-1.81 5.06-2.71 7.59-0.727 2.04-1.46 4.08-2.23 6.1-3.58 9.73-4.5 20.3-4.07 30.6 2.48-3.49 4.48-6.93 6.31-10.8 3.61-7.38 8.66-13.6 14.7-19.2 0.557-0.527 1.11-1.05 1.69-1.6 3.3-3.01 5.66-5.12 10.3-5.4v-2c6.56-2.9 13-3.33 20.1-3.38 0.838-0.0135 1.68-0.0271 2.54-0.041 7.98 0.0562 15.6 1.62 21.4 7.42 5.63 6.36 9.91 12.5 10.4 21.1-0.623 5.52-3.27 9.3-7.44 12.9-2.3 0.879-2.3 0.879-4.88 1.56-3.73 1.01-3.73 1.01-7.27 2.5-4.48 1.47-8.91 1.35-13.6 1.38-0.951 0.0329-1.9 0.0657-2.88 0.0996-6.98 0.0526-11.7-1.52-17.4-5.54-1.56-1.56-1.17-3.09-1.19-5.25 0.0293-3.67 0.476-6.43 2.19-9.75h2c0.371-1.11 0.371-1.11 0.75-2.25 1.34-2.95 2.86-4.6 5.25-6.75-4.92 0.458-7.29 1.8-11 5h-2c-0.268 0.598-0.536 1.2-0.812 1.81-1.19 2.18-2.41 3.48-4.19 5.19-0.66 0.99-1.32 1.98-2 3h-2c-0.289 0.743-0.577 1.49-0.875 2.25-0.948 2.32-1.97 4.53-3.12 6.75h-2c-0.66 2.97-1.32 5.94-2 9 1.35 0.11 2.7 0.219 4.09 0.332 1.8 0.16 3.6 0.32 5.41 0.48 0.887 0.0703 1.77 0.141 2.69 0.213 5.74 0.528 10.5 1.7 15.8 3.97 1.14 0.437 2.28 0.874 3.46 1.32 14.5 5.91 27.2 14.9 33.8 29.7 0.255 0.665 0.51 1.33 0.773 2.02 0.296 0.768 0.593 1.54 0.898 2.33 1.57 4.59 2.25 8.63 2.18 13.5-0.0113 0.974-0.0226 1.95-0.0342 2.95-0.0145 0.734-0.029 1.47-0.0439 2.22-7.47 0.0507-14.9 0.0857-22.4 0.11-2.54 0.0101-5.09 0.0237-7.63 0.041-3.65 0.0242-7.31 0.0356-11 0.0444-1.14 0.0103-2.28 0.0206-3.45 0.0313-1.06 1.51e-4 -2.12 3.02e-4 -3.21 4.58e-4 -0.933 0.00444-1.87 0.00888-2.83 0.0135-2.62-0.252-4.25-0.913-6.49-2.24-0.312-3.31-0.312-3.31 0-7 3.63-3.29 8.33-3.97 13-5-0.987-8.31-3.4-13.9-9.67-19.5-6.9-5.31-14.7-7.43-23.3-7.5-1.36 1.13-1.36 1.13-1.14 4.13 0.301 8.06 2.23 16.1 5.32 23.5 2.1 5.95 3.36 12.2 4.83 18.4-2.29-0.602-4.58-1.21-6.88-1.81-0.688-0.182-1.38-0.363-2.09-0.55-3.76-0.999-7.47-2.07-11.2-3.26-9.94-2.98-19.7-3.59-30-3.39-1.94 0.036-3.89 0.0292-5.83 0.0144-2.04-2.04-1.23-6.08-1.25-8.88-0.0206-0.733-0.0412-1.47-0.0625-2.22-0.0215-2.95-0.0309-5.3 1.44-7.9 2.74-1.47 4.98-1.29 8.06-1.19 1.09 0.0271 2.17 0.0541 3.29 0.082 1.25 0.0522 1.25 0.0522 2.52 0.105-0.242-0.819-0.485-1.64-0.734-2.48-5.14-18.7-7.6-38.4-7.94-57.8-0.0178-0.831-0.0356-1.66-0.054-2.52-0.00894-1.07-0.00894-1.07-0.0181-2.17-0.303-2.39-0.989-3.97-2.26-6.01-2.32-1.31-2.32-1.31-5-2.19-0.887-0.324-1.77-0.647-2.69-0.98-0.763-0.275-1.53-0.549-2.31-0.832-0.66-0.33-1.32-0.66-2-1-0.125-3.38-0.125-3.38 0-7 2.79-2.79 5.62-2.54 9.38-2.82 0.727-0.0614 1.45-0.123 2.2-0.186 2.33-0.195 4.65-0.378 6.98-0.56 2.33-0.187 4.66-0.376 6.99-0.571 1.45-0.121 2.9-0.237 4.35-0.347 3.34-0.0118 3.34-0.0118 6.09-1.52 3.23-0.54 6.49-0.802 9.75-1.12 0.908-0.0993 1.82-0.199 2.75-0.301 0.882-0.0889 1.76-0.178 2.67-0.27 0.805-0.0827 1.61-0.165 2.44-0.25 2.6-0.0591 4.86 0.349 7.39 0.946z" fill="#000002"/>
<path transform="translate(1233,246)" d="m0 0c10.5-0.216 20.9 0.349 31.4 1.17 2.64 0.205 5.29 0.396 7.94 0.586 1.7 0.129 3.39 0.26 5.09 0.391 0.783 0.0553 1.57 0.111 2.37 0.168 4.06 0.331 7.47 0.911 11.2 2.68-0.787 2.11-1.58 4.21-2.38 6.31-0.441 1.17-0.882 2.34-1.34 3.55-1.29 3.14-1.29 3.14-3.29 6.14-0.711 2.3-0.711 2.3-1.19 4.81-0.179 0.831-0.358 1.66-0.543 2.52-0.31 3.07 0.111 5.66 0.73 8.67 0.387-0.724 0.773-1.45 1.17-2.2 4.24-7.87 7.99-14.4 14.9-20.1 2.13-1.77 2.13-1.77 4.57-4.35 2.63-2.56 5.24-4.41 8.38-6.31 0.574-0.375 1.15-0.75 1.74-1.14 5.85-3.45 11.6-3.77 18.3-2.86 4.75 2.22 6.56 6.38 8.89 10.9 3.23 9.06 3.43 18.3 3.37 27.9-0.0107 2.07-6.91e-5 4.13 0.0127 6.2 0.0106 10.4-1.01 20.6-3.27 30.8-2.3 11-3.71 23.1-3 34.3 2.65 2.65 5.55 3.58 9 5 0.66 0.33 1.32 0.66 2 1-0.33 2.64-0.66 5.28-1 8-1.37 0.055-2.75 0.0932-4.12 0.125-0.766 0.0232-1.53 0.0464-2.32 0.0703-3.1-0.237-5.63-1.17-8.55-2.2-2.14-0.525-4.29-1.02-6.44-1.5-7.68-1.74-15.1-3.96-22.6-6.5 0.753-6.4 0.753-6.4 1.94-9.28 4.11-10.5 4.58-22.3 4.51-33.5-0.00863-2.14 0.0206-4.28 0.052-6.42 0.0385-8.02-0.696-14.7-4.5-21.8-5.45 0.389-8.13 2.21-12 6-1.37 2.15-1.37 2.15-2 4h-2c-0.268 1.05-0.536 2.1-0.812 3.19-1.19 3.81-1.19 3.81-2.69 6.19-6.19 10.8-3.08 24-0.199 35.4 1.1 5.02 1.43 10.1 1.7 15.2-7.27-0.752-7.27-0.752-10.9-2-9.75-3.18-20.9-2.86-30.8-0.34-2.67 0.396-4.69-0.00426-7.29-0.66-0.108-2.44-0.187-4.87-0.25-7.31-0.0335-0.69-0.067-1.38-0.102-2.09-0.0618-3.2-0.0873-5.08 2.04-7.56 2.72-1.21 4.6-1.34 7.56-1.22 1.34 0.0406 1.34 0.0406 2.7 0.082 0.675 0.0348 1.35 0.0696 2.05 0.105-0.475-2.48-0.954-4.96-1.44-7.44-0.135-0.707-0.269-1.41-0.408-2.14-0.438-3.5-0.438-3.5-2.15-6.42-0.388-2.52-0.716-5.03-1-7.56-0.0869-0.772-0.174-1.54-0.263-2.34-1.09-10-1.79-19.9-1.69-30 0.0111-1.22 0.0222-2.44 0.0337-3.7 0.0293-2.45 0.0729-4.9 0.132-7.35 0.015-1.13 0.03-2.25 0.0454-3.41 0.0331-1.52 0.0331-1.52 0.0669-3.07-0.112-2.6-0.112-2.6-1.7-4.38-2.61-1.91-5.42-2.01-8.56-2.46-2.06-0.723-2.06-0.723-3.36-2.55-1.04-3.21-0.326-5.91 0.301-9.17z" fill="#000002"/>
<path transform="translate(410 247)" d="m0 0c1.81 0.089 3.62 0.189 5.42 0.297 2.2 0.11 4.4 0.219 6.59 0.328 1.27 0.0664 2.54 0.133 3.85 0.201 8.68 0.45 17.4 0.834 26.1 1.22 1.46 0.0654 1.46 0.0654 2.94 0.132 21.8 0.968 43.5 1.47 65.3 1.87 0.799 3.89 1.11 6.81 0.109 10.7-0.214 0.867-0.427 1.73-0.648 2.63-0.352 1.37-0.352 1.37-0.712 2.78-2.65 10.9-4.35 21.8-5.75 32.9-2.04-0.0879-4.08-0.196-6.12-0.312-1.14-0.058-2.27-0.116-3.45-0.176-3.67-0.547-6.22-1.69-9.43-3.51 0.058-1.24 0.116-2.48 0.176-3.76 0.0469-1.64 0.0924-3.28 0.137-4.93 0.0419-0.817 0.0838-1.63 0.127-2.47 0.0882-4.36 0.0372-6.22-2.71-9.77-4.21-3.18-8.13-5.83-13.5-6.32-5.01 2.79-6.3 9.18-7.88 14.4-0.219 0.786-0.438 1.57-0.664 2.38-0.51 1.79-1.1 3.56-1.73 5.31-4.71 15.2-6.13 39 1.19 53.5 2.62 3.88 5.56 7.21 10.2 8.19 7.88 0.174 13-2.25 19.6-6.5v-5c-0.606-0.135-1.21-0.271-1.84-0.41-8.11-2.08-16.1-5.8-20.8-13.1-1.77-4.52-2.09-8.01-0.75-12.7 3.33-4.39 8.17-6.49 13.4-7.81 3.96-0.289 7.9-0.279 11.9-0.25 1.58-0.0116 1.58-0.0116 3.18-0.0234 9.63 0.0241 18.3 1.13 25.8 7.77 3.13 3.58 3.48 6.5 3.4 11.2-0.698 7.52-3.37 13.6-8.21 19.3h-2c-0.206 0.557-0.413 1.11-0.625 1.69-5.1 8.58-17.3 13.4-26.4 16.3-15.8 3.94-35.4 3.86-50-4-10.3-6.74-17.9-15.5-20.6-27.8-1.16-9.96-1.29-20.6 1.62-30.2 0.233-1.01 0.467-2.01 0.707-3.05 2.38-9.61 6.53-17.7 11.4-26.3 1.02-1.85 1.02-1.85 1.88-4.68-8.34 1.49-15.8 4.69-23 9h-2v2c-2.71 1.35-5.01 1.07-8 1-2.17-4.54-2.63-8.94-3.12-13.9-0.0864-0.777-0.173-1.55-0.262-2.36-0.487-4.6-0.885-9.14-0.613-13.8 2-2 2-2 5.83-2.05z" fill="#000002"/>
<path transform="translate(1434,242)" d="m0 0c2.42 0.201 4.63 0.524 7 1 0.718 0.143 1.44 0.286 2.18 0.433 2.32 0.48 4.63 0.988 6.95 1.5 0.785 0.17 1.57 0.339 2.38 0.514 4.02 0.891 7.68 1.97 11.5 3.55 1.76 0.417 3.53 0.793 5.31 1.12 1.32 0.251 1.32 0.251 2.68 0.508 0.664 0.121 1.33 0.242 2.01 0.367 0.764 3.74 1.07 6.35 0 10-1.17 0.0909-1.17 0.0909-2.37 0.184-1.52 0.126-1.52 0.126-3.07 0.254-1.01 0.0812-2.02 0.162-3.06 0.246-2.44 0.0485-2.44 0.0485-3.5 1.32-0.176 1.55-0.288 3.11-0.373 4.66-0.0568 0.996-0.114 1.99-0.172 3.02-0.0573 1.09-0.115 2.18-0.174 3.3-0.0628 1.12-0.126 2.24-0.19 3.39-0.201 3.6-0.396 7.21-0.591 10.8-0.195 3.55-0.392 7.1-0.59 10.7-0.127 2.29-0.253 4.57-0.377 6.86-0.386 7-0.85 14-1.46 21-0.252 2.34-0.252 2.34 0.932 4.32 0.33-0.33 0.66-0.66 1-1 2.02-0.0724 4.04-0.0838 6.06-0.0625 1.1 0.00902 2.21 0.018 3.35 0.0273 0.855 0.0116 1.71 0.0232 2.59 0.0352 2.27 5.39 2.2 10.3 2 16-1.2 0.159-2.4 0.317-3.63 0.48-14.7 2.06-27.6 5.42-40.5 13.2-3.24 1.51-5.37 1.7-8.9 1.36-0.33-0.33-0.66-0.66-1-1 0.137-7.2 0.971-14.1 3-21-4.31 1.44-6.64 4.54-9.69 7.81-1.31 1.19-1.31 1.19-3.31 1.19v2c-2.18 1.13-4.37 2.26-6.56 3.38-0.609 0.317-1.22 0.634-1.85 0.961-9.32 4.73-19.2 6.49-29.5 3.94-6.79-2.54-12-5.71-15.4-12.3-5.2-13.1-2.45-26.7 2.65-39.2 1.73-4 3.78-7.8 5.91-11.6 0.394-0.7 0.788-1.4 1.19-2.12 3.58-6.24 7.46-12.1 12.8-17.1 2.14-1.88 2.14-1.88 1.8-4.95h-21c-1.1-4.4-0.96-4.89 1.12-8.62 0.415-0.776 0.83-1.55 1.26-2.35 2.04-2.55 3.51-3.04 6.62-4.02 3.04-0.243 3.04-0.243 6.42-0.23 1.87 0.00169 1.87 0.00169 3.78 0.00342 1.98 0.0196 1.98 0.0196 3.99 0.0396 1.36 0.0082 2.71 0.0162 4.07 0.0239 7.48 0.0559 15 0.179 22.4 0.539 0.716 0.0307 1.43 0.0614 2.17 0.093 3.53 0.212 5.12 0.515 8.14 2.53-0.34 0.536-0.681 1.07-1.03 1.62-4.49 7.26-8.26 14.8-12 22.4-1.37 2.76-2.79 5.5-4.21 8.24-6.1 12.3-10.9 25.9-7.75 39.7 1.28 2.86 1.28 2.86 4 4 3.19 0.728 5.82 0.81 9 0 5.22-3.77 8.14-10.4 11-16 0.5-0.896 1-1.79 1.52-2.71 1.82-4.03 2.68-7.97 3.55-12.3 1.73-8.43 1.73-8.43 2.96-11.8 1.49-4.84 1.96-9.77 2.54-14.8 0.131-1.1 0.262-2.19 0.396-3.32 0.913-8 1.48-16 1.66-24 0.175-5.82 0.175-5.82 2.38-8.02z" fill="#000002"/>
<path transform="translate(1578,253)" d="m0 0v2c0.606 0.242 1.21 0.485 1.84 0.734 2.61 1.53 3.39 2.86 4.79 5.52 0.405 0.748 0.81 1.5 1.23 2.27 2.51 5.42 3.48 10.1 3.59 16 0.04 1.28 0.0799 2.56 0.121 3.88-0.699 4.45-2.07 5.79-5.56 8.56-8.02 4.81-22 2.86-30.8 1.35-6.69-2.04-13.2-5.4-18.2-10.3-1.37-3.9-1.16-6.05-0.5-10.1 2.07-4.05 4.89-6.26 8.5-8.94 1.14-0.897 1.14-0.897 2.31-1.81 4.08-1.8 8.26-1.94 12.7-2.19-0.33-0.33-0.66-0.66-1-1-0.99-1.49-0.99-1.49-2-3-3.44-1.15-6.19-1.17-9.81-1.19-1.8-0.0213-1.8-0.0213-3.64-0.043-7.96 0.518-15.9 4.34-21.4 10.2-7.43 10.4-9.17 21.6-8.16 34 0.33 0.33 0.66 0.66 1 1 0.334 1.96 0.613 3.93 0.867 5.91 0.246 1.83 0.246 1.83 0.496 3.7 0.337 2.57 0.67 5.13 1 7.7 0.932 6.89 2.14 13.2 4.64 19.7 0.482 1.44 0.962 2.87 1.44 4.31 1.53 4.06 3.62 6.72 7.56 8.69 5.1 0.553 5.1 0.553 9.73-1.04 1.94-3.01 1.67-6.06 1.58-9.52-0.0106-0.714-0.0211-1.43-0.032-2.16-0.00668-9.47-0.00668-9.47-3.53-17.9-2.2-1.69-4.2-2.26-6.87-2.96-4.79-1.29-4.79-1.29-5.88-2.38-0.188-3.44-0.188-3.44 0-7 2-2 2-2 4.58-2.24 1.63 0.00616 1.63 0.00616 3.29 0.0125 1.83 0.00193 1.83 0.00193 3.7 0.00391 1.32 0.0129 2.63 0.0258 3.98 0.0391 1.35 0.00686 2.7 0.0134 4.05 0.0195 12.5 0.0807 24.9 0.539 37.4 1.17 1.24 4.91 0.106 7.57-2 12-0.559 1.35-1.1 2.7-1.62 4.06-0.24 0.61-0.48 1.22-0.727 1.85-1.25 4.04-1.69 8.01-1.75 12.2-0.0148 0.725-0.0296 1.45-0.0449 2.2-0.0248 1.49-0.0299 2.99-0.0156 4.48-0.126 4.28-0.433 5.75-3.43 9.03-3.31 2.33-6.91 3.84-10.7 5.16-1.03 0.371-1.03 0.371-2.08 0.749-5.18 1.83-10.4 3.49-15.7 5.06-0.689 0.207-1.38 0.414-2.09 0.627-7.65 2.21-14.9 2.74-22.8 2.75-1.3 0.0184-1.3 0.0184-2.62 0.0371-10.2 0.0232-19-2.85-26.6-9.79-12.6-13.4-11.4-32.5-10.9-49.6 0.379-9.54 1.39-19 5.11-27.9 0.287-0.733 0.575-1.47 0.871-2.22 3.3-7.98 7.76-14.9 14.1-20.8 0.722-0.825 1.44-1.65 2.19-2.5 18.8-16.7 58-14.1 77.8-0.5z" fill="#000002"/>
<path transform="translate(110,250)" d="m0 0c1.74 1.52 1.74 1.52 3 3 0.784 0.722 1.57 1.44 2.38 2.19 6.58 7.05 9.98 14.2 10 23.9 0.0245 0.707 0.049 1.41 0.0742 2.14 0.0187 3.32-0.149 5.37-2.1 8.1-6.37 4.58-11.3 5.21-19 5.13-1.47-0.0124-1.47-0.0124-2.98-0.0251-11.2-0.26-19.3-3.19-28.5-9.44-2.46-2.6-2.67-4.44-2.86-7.98 2.34-7.41 6.22-11.2 12.9-14.8 3.84-1.84 6.74-2.76 11.1-2.19-0.33-0.33-0.66-0.66-1-1-0.99-1.49-0.99-1.49-2-3-5.72-2.2-13.3-1.58-19.2-0.312-3.31 1.55-6.49 3.27-9.66 5.09-2.15 1.22-2.15 1.22-4.36 2.2-2.8 1.59-2.91 4.01-3.79 7.02-0.495 0.784-0.99 1.57-1.5 2.38-8.91 15.6-2.93 42 1.35 58.3 1.58 5.72 3.43 11 6.15 16.3v2c2.9 0.818 5.55 1.19 8.56 1.25 0.764 0.0258 1.53 0.0516 2.32 0.0781 2.66-0.411 3.47-1.26 5.12-3.33 3.64-7.27 0.208-16.9-1.93-24.1-0.874-2.95-0.874-2.95-3.07-4.87-1.48-0.577-2.98-1.09-4.5-1.56-2.27-0.713-4.37-1.37-6.5-2.44-0.125-3.38-0.125-3.38 0-7 2-2 2-2 4.6-2.24 1.64 0.00616 1.64 0.00616 3.31 0.0125 1.23 0.00113 2.45 0.00226 3.71 0.00342 1.98 0.0196 1.98 0.0196 4 0.0396 1.35 0.00821 2.71 0.0162 4.06 0.0239 8.67 0.0641 17.3 0.234 26 0.539 1.5 0.046 1.5 0.046 3.04 0.093 0.92 0.0389 1.84 0.0778 2.79 0.118 0.799 0.0314 1.6 0.0628 2.42 0.0952 2.07 0.319 2.07 0.319 5.07 2.32-0.254 0.617-0.508 1.23-0.77 1.87-0.516 1.27-0.516 1.27-1.04 2.57-0.336 0.824-0.673 1.65-1.02 2.5-0.385 1.01-0.771 2.02-1.17 3.07-0.252 0.638-0.505 1.28-0.764 1.93-2.33 6.32-2.96 12.4-3.42 19.1-0.0819 1.06-0.164 2.11-0.248 3.2-0.198 2.58-0.386 5.16-0.564 7.74-1.98 0.66-3.96 1.32-6 2v2c-7.4 3.46-14.9 6-22.8 8.25-0.886 0.258-1.77 0.516-2.69 0.782-14.2 4-31.1 5.74-44.8-0.481-6.93-3.92-11.3-8.44-14.7-15.6-0.536-0.866-1.07-1.73-1.62-2.62-6.97-17.1-5.94-45.5 0.876-62.5 0.774-1.94 1.45-3.9 2.12-5.87 1.38-3.71 3.27-6.89 5.45-10.2 1.28-1.9 1.28-1.9 2.55-4.43 5.86-8.56 16.6-14.7 26.5-17.1 18.2-3.2 38.2-2.18 55.1 5.7z" fill="#000002"/>
<path transform="translate(358,244)" d="m0 0c1.41 2.33 2.6 4.54 3.75 7 0.344 0.714 0.687 1.43 1.04 2.16 1.08 2.27 2.15 4.55 3.21 6.84 0.33 0.697 0.661 1.39 1 2.11 7.47 15.8 13 32.3 18.7 48.8 0.227 0.66 0.454 1.32 0.688 2 1.11 3.23 2.22 6.46 3.32 9.7 0.398 1.17 0.797 2.33 1.21 3.54 0.351 1.03 0.702 2.07 1.06 3.14 1.72 4.97 1.72 4.97 5.56 8.28 4.08 1.71 8.22 3.12 12.4 4.44-0.506 5.06-1.6 10.1-5 14-3.96 1.48-7.68 1.25-11.8 0.469-3.2-0.466-5.89-0.419-9.1-0.129-1.66 0.14-1.66 0.14-3.35 0.283-1.14 0.104-2.28 0.208-3.46 0.314-8.13 0.725-16.1 1.22-24.3 1.06-1.05-4.28-1.11-8.41-1.06-12.8 0.00568-1.11 0.00568-1.11 0.0115-2.24 0.0122-2.35 0.0308-4.69 0.051-7.04 0.0266-3.1 0.0466-6.19 0.0625-9.29 0.0083-0.707 0.0166-1.41 0.0251-2.14 0.0171-3.43-0.246-6.14-1.09-9.51-10.2-0.33-20.5-0.66-31-1-1.79 4.19-3.46 8.17-4.94 12.4-1.69 4.74-3.75 9.1-6.06 13.6v1c1.22 0.133 2.43 0.266 3.68 0.402 1.58 0.178 3.17 0.357 4.75 0.535 0.802 0.087 1.6 0.174 2.43 0.264 6.02 0.686 6.02 0.686 7.13 1.8 0.0863 1.34 0.107 2.69 0.0977 4.04-0.00322 0.809-0.00645 1.62-0.00977 2.45-0.0126 1.28-0.0126 1.28-0.0254 2.58-0.00451 0.854-0.00902 1.71-0.0137 2.59-0.0118 2.12-0.0298 4.23-0.0488 6.35-2.48-0.6-4.96-1.2-7.44-1.81-0.688-0.166-1.38-0.331-2.08-0.502-3.71-0.913-7.31-1.94-10.9-3.19-4.62-1.58-9.27-2.61-14.1-3.55-2.38-0.483-4.75-0.966-7.12-1.46-1.64-0.332-3.29-0.644-4.94-0.94-0.815-0.156-1.63-0.312-2.47-0.473-0.738-0.133-1.48-0.267-2.24-0.404-0.572-0.219-1.14-0.437-1.73-0.662-0.33-0.99-0.66-1.98-1-3 0.495-0.99 0.495-0.99 1-2h2c0.248-0.742 0.495-1.49 0.75-2.25 1.43-3.15 2.38-4.79 5.25-6.75 2.72 0.0824 5.31 0.579 8 1 10.4-20.3 17.1-40.7 22-63 0.215-0.954 0.431-1.91 0.652-2.89 1.13-5.27 1.64-10.4 1.81-15.8 0.539-2.35 0.539-2.35 2.17-4.11 3.01-1.58 5.48-1.81 8.87-2.11 7.48-0.775 14.6-2.55 21.8-4.62 1.22-0.333 1.22-0.333 2.46-0.672 0.721-0.207 1.44-0.414 2.19-0.628 2.65-0.259 3.85 0.324 6.05 1.8z" fill="#000002"/>
<path transform="translate(1043 243)" d="m0 0c23.7 0.32 23.7 0.32 27.5 2.23 1.72 0.198 3.44 0.345 5.16 0.465 1.04 0.078 2.08 0.156 3.15 0.236 2.18 0.156 4.36 0.31 6.55 0.461 5.94 0.449 11.4 1.18 17.1 2.84-1.16 6.84-2.98 13.4-5.11 20-1.63 5.09-3 10.2-4.22 15.4-0.676 2.65-0.676 2.65-1.68 5.45-3.98 12.8-4.84 29.7-0.0742 42.3 1.96 3.45 4.8 5.75 8.08 7.9 0.561 0.376 1.12 0.753 1.7 1.14 3.5 1.31 6.99 1.2 10.7 1.17 0.793-0.00419 1.59-0.00838 2.4-0.0127 7.14-0.135 14.5-0.632 21.2-3.3 1.3-1.92 1.3-1.92 2-4 0.66-0.66 1.32-1.32 2-2v-3c-3.07 0.439-5.86 0.95-8.79 2.01-7.18 2.21-15.5 2.39-22.3-1.14-4.19-2.79-8.17-5.69-9.41-10.8-0.29-3.91 0.312-5.79 2.41-9.18 9.43-9.8 22.4-15 35.8-15.4 6.58 0.105 6.58 0.105 9.29 1.56 5.4 6.08 6.54 14.3 6.4 22.1-0.00943 0.827-0.0189 1.65-0.0286 2.51-0.277 11.4-2.63 21.4-8.35 31.4-0.345 0.789-0.691 1.58-1.05 2.39-1.13 2.34-1.98 3.91-3.95 5.61-4.35 0.853-8.96 1.02-13-1-5.05-0.546-10.1-0.817-15.2-1.12-0.744-0.0455-1.49-0.0909-2.25-0.138-28.3-2.65-28.3-2.65-54.6 5.26-2.69-0.375-2.69-0.375-5-1-2.66-10.5-2.66-10.5-2-16 2.91-2.84 5.25-3.42 9.25-3.69 0.892-0.0657 1.78-0.131 2.7-0.199 1.01-0.0561 1.01-0.0561 2.05-0.113-0.398-1.49-0.398-1.49-0.805-3-0.357-1.33-0.714-2.67-1.07-4-0.174-0.648-0.348-1.3-0.527-1.96-0.357-1.34-0.711-2.67-1.06-4.01-0.349-1.32-0.708-2.64-1.08-3.95-1.46-5.39-2.08-10.7-2.52-16.3-0.0838-0.998-0.168-2-0.254-3.02-0.52-6.83-0.797-13.6-0.961-20.5-0.0201-0.834-0.0401-1.67-0.0608-2.53-0.0961-4.19-0.174-8.38-0.232-12.6-0.0285-1.55-0.0571-3.11-0.0857-4.66-0.00779-1.08-0.00779-1.08-0.0157-2.17-0.0745-3.66-0.239-5.23-2.33-8.37-2.12-0.759-2.12-0.759-4.5-1.12-4.37-0.808-4.37-0.808-6.5-1.88-0.484-1.78-0.484-1.78-0.75-3.94-0.098-0.71-0.196-1.42-0.297-2.15 0.0796-3.24 1.53-3.86 4.56-4.14z" fill="#000002"/>
<path transform="translate(1229,247)" d="m0 0v9c-1.03 0.433-2.06 0.866-3.12 1.31-5.41 3.21-7.85 7.85-9.88 13.7-1.29 6.26-1.61 12.6-2 19-0.109 1.45-0.219 2.91-0.332 4.36-1.83 22.2-1.83 22.2 3.33 43.6 0.999-0.0116 2-0.0232 3.03-0.0352 1.29-0.00902 2.58-0.018 3.91-0.0273 1.29-0.0116 2.58-0.0232 3.9-0.0352 3.16 0.0977 3.16 0.0977 4.16 1.1 0.893 4.46 1.05 8.71 1.03 13.3-0.00395 1.08-0.0079 2.15-0.012 3.26-0.00508 0.818-0.0102 1.64-0.0154 2.48-0.995-0.0408-1.99-0.0815-3.02-0.124-20.8-0.825-41.2-1.35-61.8 1.69-2.73 0.376-5.3 0.572-8.05 0.562-0.761 0.00258-1.52 0.00516-2.3 0.00781-1.82-0.133-1.82-0.133-2.82-1.13-0.0195-2.4-0.0195-2.4 0.188-5.38 0.0554-0.977 0.111-1.95 0.168-2.96 0.645-2.66 0.645-2.66 2.38-4.45 2.51-1.35 4.58-1.85 7.39-2.28 3.89-0.524 3.89-0.524 6.88-2.94 0.538-2.19 0.538-2.19 0.816-4.72 0.124-0.932 0.249-1.86 0.377-2.82 0.122-0.976 0.244-1.95 0.369-2.96 0.248-1.93 0.499-3.85 0.754-5.78 0.108-0.857 0.215-1.71 0.326-2.6 0.357-2.12 0.357-2.12 1.36-4.12 0.462-4.48 0.712-8.98 0.985-13.5 0.137-2.22 0.289-4.44 0.441-6.66 0.69-10.7 0.882-21.3-1.43-31.9-0.99 0.33-1.98 0.66-3 1-3.38 0.375-3.38 0.375-7 0-2.81-2.38-2.81-2.38-5-5-0.66-0.66-1.32-1.32-2-2 0.188-2.5 0.188-2.5 1-5 3.5-2.33 6.2-2.46 10.3-2.71 1.5-0.109 3-0.219 4.49-0.329 1.18-0.0818 1.18-0.0818 2.38-0.165 13.5-0.942 26.8-2.27 40.1-4.61 0.976-0.168 1.95-0.337 2.96-0.51 0.839-0.154 1.68-0.307 2.54-0.466 2.27-0.206 2.27-0.206 6.27 0.794z" fill="#000002"/>
<path transform="translate(606,247)" d="m0 0c0.354 3.07 0.514 5.94 0 9-2.62 1.94-2.62 1.94-6 4-5.77 6.94-7.24 14.2-8 23-0.0847 0.923-0.169 1.85-0.257 2.8-0.712 8.3-0.927 16.6-0.931 24.9-0.0184 1.86-0.0184 1.86-0.0371 3.76-0.485 11.7-0.485 11.7 3.62 22.3 2.5 1.94 4.7 1.54 7.8 1.44 1.63-0.0406 1.63-0.0406 3.29-0.082 0.831-0.0348 1.66-0.0696 2.52-0.105 2.11 4.28 2.24 8.14 2.12 12.8-0.00902 0.693-0.018 1.39-0.0273 2.1-0.0234 1.7-0.0593 3.39-0.0977 5.09-1.19-0.0722-2.38-0.144-3.6-0.219-20.4-1.18-40-0.885-60.4 1.56-4.39 0.511-8.62 0.908-13 0.656-1-1-1-1-1.38-4.12 0.39-4.03 0.935-6.19 3.43-9.32 2.63-2.1 4.84-2.29 8.15-2.75 1.08-0.157 2.17-0.314 3.29-0.475 0.829-0.107 1.66-0.215 2.51-0.325 0.701-4.18 1.39-8.35 2.08-12.5 0.234-1.42 0.469-2.83 0.707-4.24 2.18-13 3.39-25.8 3.4-39 0.0184-1.46 0.0184-1.46 0.0371-2.94 0.0117-5.77-0.567-10.7-2.22-16.2-2.57-0.723-4.34-0.986-7.06-0.875-2.94-0.125-2.94-0.125-4.62-1.38-0.433-0.577-0.866-1.15-1.31-1.75-0.866-0.897-0.866-0.897-1.75-1.81-1.25-2.19-1.25-2.19-1.06-5.38 0.402-1.39 0.402-1.39 0.812-2.81 2.91-1.45 5.92-1.39 9.12-1.61 1.5-0.112 2.99-0.225 4.49-0.339 1.18-0.0879 1.18-0.0879 2.39-0.178 13.8-1.03 27.3-2.41 41-4.69 1.02-0.168 2.05-0.337 3.11-0.51 0.886-0.154 1.77-0.307 2.69-0.466 2.25-0.206 2.25-0.206 5.25 0.794z" fill="#000002"/>
<path transform="translate(695 290)" d="m0 0c5.39 5.03 8.15 8.1 8.44 15.8-0.352 7.25-3.12 10.7-8.25 15.6-11.1 9.4-24.6 9.27-38.5 8.65-9.26-0.903-17.4-5.62-23.8-12.3-2.74-4.47-2.62-8.91-2-14 3.99-8.85 14.3-14.5 23-18 12.9-3.99 29.6-3.3 41.1 4.31z" fill="#FCFDFF"/>
<path transform="translate(1007,290)" d="m0 0c5.08 5.15 8.14 8.44 8.25 15.8 0.0258 1.04 0.0516 2.08 0.0781 3.14-0.657 6.09-4.79 10-9.01 14.2-10.8 8.7-27.2 8.18-40.3 6.87-7.6-1.7-15.4-5.55-20.4-11.7-2.46-4.24-3.26-7.32-2.64-12.3 1.74-5.6 4.25-8.73 9-12 0.588-0.422 1.18-0.843 1.78-1.28 14.7-9.93 37.8-13.3 53.2-2.72z" fill="#FCFDFF"/>
<path transform="translate(202 270)" d="m0 0c0.717 0.0346 1.43 0.0691 2.17 0.105 7.06 0.445 13.1 2.32 19.5 5.46 1.02 0.492 2.03 0.985 3.08 1.49 2.7 1.65 4.08 2.92 5.67 5.63 0.312 2.62 0.312 2.62 0 5-4.87 4.87-13.6 4.24-20.1 4.31-14.3-0.0397-28.7-2.77-40.9-10.3 0.188-2.81 0.188-2.81 1-6 8.04-6.62 19.8-6.2 29.6-5.69z" fill="#FCFDFF"/>
<path transform="translate(353 275)" d="m0 0c2.4 2.81 2.01 4.96 1.87 8.59-0.0361 1.18-0.0722 2.36-0.109 3.57-0.0464 0.904-0.0928 1.81-0.141 2.74-0.99 0.33-1.98 0.66-3 1-0.33 0.99-0.66 1.98-1 3-5 1.91-9.72 2.34-15.1 2.31-1.02 0.0242-1.02 0.0242-2.06 0.0488-4.7 0.00451-7.85-0.981-11.9-3.36-0.296-5.03-0.158-8 3-12 7.01-6.85 19-10.2 28.4-5.9z" fill="#FCFDFF"/>
</svg>
